<?xml version="1.0" encoding="UTF-8"?>
<svg id="Livello_1" xmlns="http://www.w3.org/2000/svg" xmlns:xlink="http://www.w3.org/1999/xlink" version="1.1" viewBox="0 0 1353.5 345">
  <!-- Generator: Adobe Illustrator 29.0.1, SVG Export Plug-In . SVG Version: 2.1.0 Build 192)  -->
  <defs>
    <style>
      .st0 {
        fill-rule: evenodd;
      }

      .st0, .st1 {
        fill: #fff;
      }

      .st2 {
        fill: url(#Sfumatura_senza_nome);
      }

      .st3 {
        fill: url(#Sfumatura_senza_nome_3);
      }

      .st4 {
        fill: url(#Sfumatura_senza_nome_2);
      }
    </style>
    <linearGradient id="Sfumatura_senza_nome" data-name="Sfumatura senza nome" x1="-1062.7" y1="715.3" x2="-1061.7" y2="715.3" gradientTransform="translate(-45716.1 146140.3) rotate(60) scale(97.3 -158)" gradientUnits="userSpaceOnUse">
      <stop offset="0" stop-color="#f6b806"/>
      <stop offset="1" stop-color="#ec6e78"/>
    </linearGradient>
    <linearGradient id="Sfumatura_senza_nome_2" data-name="Sfumatura senza nome 2" x1="1321.2" y1="217.9" x2="1128.4" y2="25" gradientTransform="translate(0 346) scale(1 -1)" gradientUnits="userSpaceOnUse">
      <stop offset="0" stop-color="#f6b806"/>
      <stop offset="1" stop-color="#ec6e78"/>
    </linearGradient>
    <linearGradient id="Sfumatura_senza_nome_3" data-name="Sfumatura senza nome 3" x1="1378" y1="161.1" x2="1185.2" y2="-31.7" gradientTransform="translate(0 346) scale(1 -1)" gradientUnits="userSpaceOnUse">
      <stop offset="0" stop-color="#f6b806"/>
      <stop offset="1" stop-color="#ec6e78"/>
    </linearGradient>
  </defs>
  <g>
    <g id="Clip-Path:_Clip-Path:_Clip-Path">
      <g id="Clip-Path:_Clip-Path">
        <g id="Clip-Path">
          <g>
            <path class="st1" d="M0,120.8C-.8,83.5,32,50.7,69.3,51.5c15.8,0,29.7,4.6,42.1,14,11.9,9.1,20.5,21.8,24.4,36.3h-37c-3-5-7.3-9.1-12.5-12-5.1-2.8-10.9-4.2-16.7-4.1-19.6,0-34.7,15-34.7,35.1s15,35.2,34.6,35.2c5.6.1,11.1-1.2,16-3.8s9.1-6.3,12.2-11h37.9c-4.3,14.2-13.1,26.7-25.1,35.5-11.9,8.8-26.4,13.5-41.2,13.4C32,190.8-.8,158.1,0,120.8h0Z"/>
            <path class="st0" d="M287.8,120.8c.8,37.3-32,70-69.3,69.3-37.3.8-70.1-32-69.3-69.3-.8-37.3,32-70.1,69.3-69.3,37.3-.8,70.1,32,69.3,69.3ZM184.1,120.8c0,20.1,15,35.2,34.7,35.2s34.1-15,34.1-35.2-14.5-35.2-34.1-35.2-34.7,15.1-34.7,35.2h0Z"/>
            <path class="st1" d="M420.6,187.9h-34.9v-70.6c0-21.7-7.2-31.7-24.1-31.7s-24.2,10-24.2,31.7v70.6h-34.9v-70.6c0-43.8,23.4-65.8,59.1-65.8s59,22,59,65.8v70.6Z"/>
            <path class="st1" d="M555.7,53.7h34.9v134.2h-34.9V53.7Z"/>
            <path class="st0" d="M746.8,120.8c.9,37.3-31.6,70-69,69.3-37.3.8-70-32-69.2-69.3-.8-37.3,31.9-70.1,69.2-69.3,13.2,0,24.5,3.5,33.9,10.2V0h35.1v120.8ZM643.5,120.8c0,20.1,14.5,35.2,34.1,35.2s34.6-15,34.6-35.2-15-35.1-34.6-35.1-34.1,15-34.1,35.1Z"/>
            <path class="st0" d="M829.8,51.5c34.1,0,69,25.3,70,66.3.2,5.6,0,11.2-1,16.7h-99.6c3.2,13.1,14.7,21.5,30.6,21.5s17.4-3.3,23.1-7.8l41.6.2c-5.5,12.4-14.4,22.8-25.7,30.2s-24.5,11.4-37.9,11.5c-37.9.7-70.1-31.7-69.3-69-.8-36.8,30.9-70.4,68.2-69.6h0ZM862.5,106.5c-2.6-6.2-7.1-11.4-12.7-15.2-5.6-3.7-12.2-5.7-18.9-5.7-15,0-26,8-31.7,20.9h63.3Z"/>
            <path class="st1" d="M914.6,117.3c0-42.7,23.1-64.1,57.4-64.1h1.6v34h-1.3c-15.3,0-22.8,9.4-22.8,30.1v70.6h-34.9s0-70.6,0-70.6Z"/>
            <path class="st0" d="M983,120.8c-.8-37.3,31.9-70.1,69.3-69.3,37.3-.8,69.7,32,69,69.3v67.1h-34.9v-14.2c-4,8.8-19.1,16.4-34.1,16.4-37.3.8-70.1-32-69.3-69.3h0ZM1086.6,120.8c0-20.1-14.5-35.2-34.1-35.2s-34.6,15-34.6,35.2,15.1,35.2,34.7,35.2,34.1-15.1,34.1-35.2h0Z"/>
            <path class="st2" d="M532.8,51.7c-18.3-1.1-33.3,3.6-44.4,14.2-6.6,6.2-11.3,14-13.9,22.7-2.5,8.5-3.7,19-3.7,32.1s-.2,8.6-.7,12.9c-.3,2.8-.8,5.6-1.6,8.3-.5,1.5-1.1,3-1.9,4.4-.8,1.2-1.7,2.3-2.7,3.4-2.2,2-4.8,3.4-7.6,4.2-3.9,1.2-7.9,1.6-11.8,1.2l-7.9-.4v35l7,.3c1.5,0,2.9.1,4.3.2,6.8,0,13.5-1,20-3,8-2.6,15.3-7,21.2-13,5.9-6,10.3-13.4,12.7-21.4,2.5-8.3,3.8-19,3.8-32s.2-8.6.7-12.9c.3-2.8.8-5.6,1.6-8.3.5-1.7,1.1-3.2,2-4.7.8-1.3,1.7-2.4,2.8-3.5,2.1-2.1,4.8-3.5,7.6-4.1,3.9-.7,7.9-1.1,11.8-.9l7.6.3v-34.6l-6.9-.4h0Z"/>
            <path class="st1" d="M590.6,0h-34.9v34.9h34.9V0Z"/>
          </g>
        </g>
      </g>
    </g>
    <g>
      <path class="st1" d="M490.5,235.6c5.1,3.7,8.7,8.7,10.8,14.8v-45.9h12.6v102.7h-12.6v-19.4c-2,6.2-5.6,11.2-10.8,14.8-5.1,3.7-11.4,5.6-18.8,5.6s-12.8-1.6-18-4.7c-5.3-3.1-9.4-7.7-12.4-13.5-3-5.9-4.5-12.8-4.5-20.7s1.5-14.9,4.5-20.8c3-5.9,7.1-10.5,12.4-13.6,5.3-3.1,11.3-4.7,18-4.7s13.7,1.9,18.8,5.6ZM456.6,248.7c-4.7,5-7,11.8-7,20.5s2.3,15.5,7,20.5c4.7,5,10.9,7.4,18.7,7.4s9.5-1.2,13.4-3.5c3.9-2.3,7-5.6,9.2-9.8,2.2-4.2,3.3-9.1,3.3-14.6s-1.1-10.5-3.3-14.7c-2.2-4.3-5.3-7.5-9.2-9.8-3.9-2.3-8.4-3.4-13.4-3.4-7.8,0-14,2.5-18.7,7.4Z"/>
      <path class="st1" d="M598.1,271.8h-60.9c.3,8.7,2.8,15.2,7.4,19.6,4.7,4.3,10.4,6.5,17.1,6.5s11.2-1.5,15.3-4.6c4.1-3.1,6.6-7.2,7.6-12.4h13.5c-.9,5.3-3,10-6.2,14.2-3.2,4.2-7.3,7.4-12.4,9.7-5.1,2.3-10.8,3.5-17.2,3.5s-13.8-1.6-19.4-4.7c-5.6-3.1-10.1-7.7-13.3-13.5-3.2-5.9-4.8-12.8-4.8-20.7s1.6-14.9,4.8-20.8c3.2-5.9,7.6-10.5,13.3-13.6,5.6-3.1,12.1-4.7,19.4-4.7s13.9,1.6,19.4,4.7c5.5,3.1,9.7,7.4,12.6,12.6,2.9,5.3,4.4,11.1,4.4,17.5s-.2,5-.6,6.9ZM583.1,251.5c-2.1-3.8-5-6.6-8.7-8.5-3.7-1.8-7.7-2.8-12.1-2.8-6.9,0-12.8,2.2-17.5,6.5-4.7,4.3-7.3,10.6-7.6,18.9h48.7c.3-5.6-.6-10.4-2.8-14.2Z"/>
      <path class="st1" d="M654.4,236.8c5.2,4.5,8.4,10.5,9.5,18.1h-12.1c-.6-4.5-2.4-8.3-5.6-11.2-3.2-2.9-7.5-4.4-12.8-4.4s-8.1,1.1-10.6,3.3c-2.5,2.2-3.8,5.1-3.8,8.8s.9,5,2.6,6.7c1.7,1.7,3.8,3,6.4,3.9,2.5.9,6,1.8,10.5,2.8,5.6,1.3,10.2,2.6,13.7,4,3.5,1.3,6.4,3.5,8.9,6.5,2.5,3,3.7,6.9,3.7,11.9s-2.3,11.2-7,15.1c-4.7,3.9-10.9,5.8-18.7,5.8s-16.5-2.2-22.2-6.5c-5.7-4.3-9.1-10.4-10.1-18.2h12.2c.5,4.6,2.5,8.4,6,11.2,3.6,2.9,8.3,4.3,14.1,4.3s7.7-1.1,10.2-3.3c2.5-2.2,3.7-5.1,3.7-8.7s-.9-5.3-2.6-7.1c-1.8-1.8-3.9-3.1-6.5-4-2.6-.9-6.2-1.9-10.7-2.9-5.6-1.3-10.2-2.6-13.5-3.9-3.4-1.3-6.2-3.4-8.6-6.2-2.4-2.8-3.5-6.6-3.5-11.4s2.4-11.5,7.1-15.5c4.7-3.9,11.1-5.9,19.3-5.9s15.5,2.2,20.7,6.7Z"/>
      <path class="st1" d="M676.2,203c1.6-1.4,3.7-2.2,6.2-2.2s4.7.7,6.2,2.2c1.6,1.4,2.4,3.3,2.4,5.6s-.8,4.2-2.4,5.6c-1.6,1.4-3.7,2.2-6.2,2.2s-4.7-.7-6.2-2.2c-1.6-1.4-2.4-3.3-2.4-5.6s.8-4.2,2.4-5.6ZM688.7,231v76.2h-12.6v-76.2h12.6Z"/>
      <path class="st1" d="M753.6,235.6c5.1,3.7,8.7,8.7,10.8,14.8v-19.4h12.6v77.4c0,7-1.5,13.3-4.4,18.7-3,5.5-7.1,9.7-12.5,12.8-5.4,3.1-11.6,4.6-18.7,4.6-10.3,0-18.6-2.5-25.1-7.4-6.5-5-10.6-11.6-12.4-20.1h12.5c1.5,5.1,4.3,9.1,8.4,12,4.1,2.9,9.4,4.4,15.9,4.4s12.5-2.2,17-6.6c4.5-4.4,6.7-10.5,6.7-18.4v-20.7c-2,6.2-5.6,11.2-10.8,14.8-5.1,3.7-11.4,5.6-18.8,5.6s-12.8-1.6-18-4.7c-5.3-3.1-9.4-7.7-12.4-13.5-3-5.9-4.5-12.8-4.5-20.7s1.5-14.9,4.5-20.8c3-5.9,7.1-10.5,12.4-13.6,5.3-3.1,11.3-4.7,18-4.7s13.7,1.9,18.8,5.6ZM719.7,248.7c-4.7,5-7,11.8-7,20.5s2.3,15.5,7,20.5c4.7,5,10.9,7.4,18.7,7.4s9.5-1.2,13.4-3.5c3.9-2.3,7-5.6,9.2-9.8,2.2-4.2,3.3-9.1,3.3-14.6s-1.1-10.5-3.3-14.7c-2.2-4.3-5.3-7.5-9.2-9.8-3.9-2.3-8.4-3.4-13.4-3.4-7.8,0-14,2.5-18.7,7.4Z"/>
      <path class="st1" d="M853.3,238.3c5.5,5.7,8.2,13.9,8.2,24.6v44.3h-12.6v-43.2c0-7.6-1.9-13.4-5.8-17.5-3.9-4.1-9.2-6.1-15.8-6.1s-12.5,2.2-16.7,6.7c-4.2,4.5-6.2,11-6.2,19.6v40.4h-12.6v-76.2h12.6v18c1.9-6.2,5.4-11,10.3-14.3,4.9-3.3,10.7-5,17.1-5s16.1,2.8,21.5,8.5Z"/>
      <path class="st1" d="M925.5,235.6c5.1,3.7,8.7,8.7,10.8,14.8v-19.4h12.6v76.2h-12.6v-19.4c-2,6.2-5.6,11.2-10.8,14.8-5.1,3.7-11.4,5.6-18.8,5.6s-12.8-1.6-18-4.7c-5.3-3.1-9.4-7.7-12.4-13.5-3-5.9-4.5-12.8-4.5-20.7s1.5-14.9,4.5-20.8c3-5.9,7.1-10.5,12.4-13.6,5.3-3.1,11.3-4.7,18-4.7s13.7,1.9,18.8,5.6ZM891.7,248.7c-4.7,5-7,11.8-7,20.5s2.3,15.5,7,20.5c4.7,5,10.9,7.4,18.7,7.4s9.5-1.2,13.4-3.5c3.9-2.3,7-5.6,9.2-9.8,2.2-4.2,3.3-9.1,3.3-14.6s-1.1-10.5-3.3-14.7c-2.2-4.3-5.3-7.5-9.2-9.8-3.9-2.3-8.4-3.4-13.4-3.4-7.8,0-14,2.5-18.7,7.4Z"/>
      <path class="st1" d="M1013.7,235.6c5.1,3.7,8.7,8.7,10.8,14.8v-19.4h12.6v77.4c0,7-1.5,13.3-4.4,18.7-3,5.5-7.1,9.7-12.5,12.8-5.4,3.1-11.6,4.6-18.7,4.6-10.3,0-18.6-2.5-25.1-7.4-6.5-5-10.6-11.6-12.4-20.1h12.5c1.5,5.1,4.3,9.1,8.4,12,4.1,2.9,9.4,4.4,15.9,4.4s12.5-2.2,17-6.6c4.5-4.4,6.7-10.5,6.7-18.4v-20.7c-2,6.2-5.6,11.2-10.8,14.8-5.1,3.7-11.4,5.6-18.8,5.6s-12.8-1.6-18-4.7c-5.3-3.1-9.4-7.7-12.4-13.5-3-5.9-4.5-12.8-4.5-20.7s1.5-14.9,4.5-20.8c3-5.9,7.1-10.5,12.4-13.6,5.3-3.1,11.3-4.7,18-4.7s13.7,1.9,18.8,5.6ZM979.8,248.7c-4.7,5-7,11.8-7,20.5s2.3,15.5,7,20.5c4.7,5,10.9,7.4,18.7,7.4s9.5-1.2,13.4-3.5c3.9-2.3,7-5.6,9.2-9.8,2.2-4.2,3.3-9.1,3.3-14.6s-1.1-10.5-3.3-14.7c-2.2-4.3-5.3-7.5-9.2-9.8-3.9-2.3-8.4-3.4-13.4-3.4-7.8,0-14,2.5-18.7,7.4Z"/>
      <path class="st1" d="M1121.3,271.8h-60.9c.3,8.7,2.8,15.2,7.4,19.6,4.7,4.3,10.4,6.5,17.1,6.5s11.2-1.5,15.3-4.6c4.1-3.1,6.6-7.2,7.6-12.4h13.5c-.9,5.3-3,10-6.2,14.2-3.2,4.2-7.3,7.4-12.4,9.7-5.1,2.3-10.8,3.5-17.2,3.5s-13.8-1.6-19.4-4.7c-5.6-3.1-10.1-7.7-13.3-13.5-3.2-5.9-4.8-12.8-4.8-20.7s1.6-14.9,4.8-20.8c3.2-5.9,7.6-10.5,13.3-13.6,5.6-3.1,12.1-4.7,19.4-4.7s13.9,1.6,19.4,4.7c5.5,3.1,9.7,7.4,12.6,12.6,2.9,5.3,4.4,11.1,4.4,17.5s-.2,5-.6,6.9ZM1106.3,251.5c-2.1-3.8-5-6.6-8.7-8.5-3.7-1.8-7.7-2.8-12.1-2.8-6.9,0-12.8,2.2-17.5,6.5-4.7,4.3-7.3,10.6-7.6,18.9h48.7c.3-5.6-.6-10.4-2.8-14.2Z"/>
    </g>
  </g>
  <g>
    <path class="st4" d="M1230,196.4c8.8,5.1,15.7,12.3,20.7,21.5s7.5,19.6,7.5,31.2-2.5,22-7.5,31.3c-5,9.2-11.9,16.4-20.7,21.5-8.8,5.1-18.6,7.7-29.6,7.7s-20.9-2.6-29.7-7.7c-8.9-5.1-15.8-12.3-20.9-21.5-5-9.2-7.5-19.6-7.5-31.3s2.5-22,7.5-31.2,12-16.4,20.9-21.5,18.8-7.7,29.7-7.7,20.8,2.6,29.6,7.7ZM1178.5,208.5c-6.4,3.7-11.5,9.1-15.1,16.1s-5.4,15.2-5.4,24.5,1.8,17.4,5.4,24.5c3.6,7,8.7,12.4,15.1,16.2,6.4,3.7,13.7,5.6,21.9,5.6s15.3-1.9,21.7-5.7c6.4-3.8,11.5-9.2,15.1-16.2s5.4-15.1,5.4-24.4-1.8-17.6-5.4-24.5c-3.6-7-8.7-12.3-15.1-16.1-6.4-3.7-13.7-5.6-21.7-5.6s-15.4,1.9-21.9,5.6Z"/>
    <path class="st3" d="M1349.5,293.2c-2.7,4.8-6.8,8.7-12.2,11.7-5.5,3-12.2,4.5-20.3,4.5s-14.8-1.4-20.9-4.3c-6.1-2.8-10.9-6.8-14.6-11.7-3.6-5-5.7-10.6-6.3-17h16.3c.3,3.4,1.5,6.6,3.4,9.8,2,3.2,4.7,5.8,8.4,7.9,3.6,2.1,8,3.1,13.2,3.1s11.8-1.8,15.4-5.4,5.4-8.2,5.4-13.7-1.3-8.7-3.8-11.7-5.6-5.4-9.3-7.1c-3.7-1.7-8.7-3.6-15.1-5.6-7.5-2.5-13.5-4.8-18-7s-8.4-5.4-11.6-9.8c-3.2-4.4-4.8-10.1-4.8-17.3s1.5-11.6,4.4-16.3c3-4.7,7.2-8.3,12.7-10.9,5.5-2.6,12-3.9,19.5-3.9,11.6,0,20.8,2.8,27.6,8.5,6.8,5.6,10.8,12.8,11.9,21.5h-16.4c-.9-4.7-3.3-8.8-7.2-12.4-3.9-3.6-9.2-5.4-15.9-5.4s-11.1,1.6-14.7,4.8c-3.7,3.2-5.5,7.7-5.5,13.5s1.2,8.3,3.6,11.1,5.4,5.1,9,6.7c3.6,1.6,8.5,3.4,14.7,5.4,7.6,2.5,13.7,4.8,18.3,7,4.6,2.2,8.6,5.6,11.8,10.1,3.2,4.5,4.9,10.5,4.9,18s-1.3,10.8-4,15.6v.3Z"/>
  </g>
</svg>