<?xml version="1.0" encoding="UTF-8" standalone="no"?>
<!-- Created with Inkscape (http://www.inkscape.org/) -->

<svg
   width="210mm"
   height="297mm"
   viewBox="0 0 210 297"
   version="1.1"
   id="svg988"
   inkscape:version="1.2.2 (b0a8486541, 2022-12-01)"
   sodipodi:docname="232308958-35547bb1-74a4-4b33-8126-63b7ebe6a5d9.svg"
   inkscape:export-filename="fullpageos-logo-may-2023-new-rasp-gradiend-red.png"
   inkscape:export-xdpi="629.29578"
   inkscape:export-ydpi="629.29578"
   xml:space="preserve"
   xmlns:inkscape="http://www.inkscape.org/namespaces/inkscape"
   xmlns:sodipodi="http://sodipodi.sourceforge.net/DTD/sodipodi-0.dtd"
   xmlns:xlink="http://www.w3.org/1999/xlink"
   xmlns="http://www.w3.org/2000/svg"
   xmlns:svg="http://www.w3.org/2000/svg"><sodipodi:namedview
     id="namedview990"
     pagecolor="#505050"
     bordercolor="#ffffff"
     borderopacity="1"
     inkscape:showpageshadow="0"
     inkscape:pageopacity="0"
     inkscape:pagecheckerboard="1"
     inkscape:deskcolor="#505050"
     inkscape:document-units="mm"
     showgrid="false"
     inkscape:zoom="0.33763328"
     inkscape:cx="519.79474"
     inkscape:cy="743.41014"
     inkscape:window-width="1920"
     inkscape:window-height="1009"
     inkscape:window-x="0"
     inkscape:window-y="34"
     inkscape:window-maximized="1"
     inkscape:current-layer="svg988"
     showguides="true"><sodipodi:guide
       position="105.10587,134.19855"
       orientation="0,-1"
       id="guide3166"
       inkscape:locked="false" /><sodipodi:guide
       position="106.5752,134.88424"
       orientation="1,0"
       id="guide3168"
       inkscape:locked="false" /><sodipodi:guide
       position="109.80772,144.38589"
       orientation="0,-1"
       id="guide3170"
       inkscape:locked="false" /><sodipodi:guide
       position="107.53352,135.82094"
       orientation="0,-1"
       id="guide3174"
       inkscape:locked="false" /></sodipodi:namedview><defs
     id="defs985"><linearGradient
       inkscape:collect="always"
       id="linearGradient941"><stop
         style="stop-color:#a6113f;stop-opacity:1;"
         offset="0"
         id="stop937" /><stop
         style="stop-color:#d7135f;stop-opacity:0.99834025;"
         offset="1"
         id="stop939" /></linearGradient><linearGradient
       inkscape:collect="always"
       xlink:href="#linearGradient13030"
       id="linearGradient940"
       gradientUnits="userSpaceOnUse"
       x1="623.01489"
       y1="-263.68036"
       x2="567.6781"
       y2="-58.96143"
       gradientTransform="rotate(30,-240.51209,-921.0748)" /><linearGradient
       inkscape:collect="always"
       id="linearGradient13030"><stop
         style="stop-color:#ffffff;stop-opacity:1;"
         offset="0"
         id="stop13026" /><stop
         style="stop-color:#ffffff;stop-opacity:0;"
         offset="1"
         id="stop13028" /></linearGradient><linearGradient
       inkscape:collect="always"
       xlink:href="#linearGradient941"
       id="linearGradient943"
       x1="35.75743"
       y1="151.31055"
       x2="177.47209"
       y2="151.31055"
       gradientUnits="userSpaceOnUse"
       gradientTransform="rotate(-90,106.61476,151.31055)" /></defs><g
     inkscape:label="Layer 1"
     inkscape:groupmode="layer"
     id="layer1"
     inkscape:export-filename="layer1.svg"
     inkscape:export-xdpi="82.937805"
     inkscape:export-ydpi="82.937805"><path
       style="color:#000000;display:inline;fill:url(#linearGradient943);fill-opacity:1;stroke-width:15"
       d="M 35.757431,206.72225 V 95.898851 c 0,-8.55688 6.88875,-15.44563 15.44563,-15.44563 H 162.02646 c 8.55688,0 15.44563,6.88875 15.44563,15.44563 V 206.72225 c 0,8.55688 -6.88875,15.44563 -15.44563,15.44563 H 51.203061 c -8.55688,0 -15.44563,-6.88875 -15.44563,-15.44563 z"
       id="path901-06-7" /><path
       style="color:#000000;display:inline;fill:#000000"
       d="m 51.20265,72.953132 c -12.58214,0 -22.94531,10.36317 -22.94531,22.94531 V 206.72266 c 0,12.58214 10.36317,22.94531 22.94531,22.94531 h 110.82422 c 12.58214,0 22.94531,-10.36317 22.94531,-22.94531 V 95.898442 c 0,-12.58214 -10.36317,-22.94531 -22.94531,-22.94531 z m 0,15 h 110.82422 c 4.5316,0 7.94531,3.41371 7.94531,7.94531 V 206.72266 c 0,4.5316 -3.41371,7.94531 -7.94531,7.94531 H 51.20265 c -4.5316,0 -7.94531,-3.41371 -7.94531,-7.94531 V 95.898442 c 0,-4.5316 3.41371,-7.94531 7.94531,-7.94531 z"
       id="path903-40-5" /><path
       id="path34-4-1-3"
       style="display:inline;fill:#ffffff;stroke-width:0.162964"
       d="m 106.61416,109.59228 c -13.869512,0 -26.146684,6.7761 -33.730237,17.1912 l 12.972852,22.46943 c 1.033499,-10.5538 9.93211,-18.80111 20.757385,-18.80144 h 5.2e-4 36.12286 c -7.21472,-12.46594 -20.68439,-20.85919 -36.12338,-20.85919 z m -36.124923,20.86487 c -3.549606,6.1362 -5.592423,13.25369 -5.592423,20.85299 l 5.17e-4,5.2e-4 c 0,21.55905 16.354099,39.29676 37.333639,41.48791 l 12.97647,-22.47563 c -2.62024,1.18605 -5.52952,1.8464 -8.59276,1.8464 -7.720021,0 -14.457196,-4.19597 -18.064013,-10.42986 -0.0461,-0.0796 -0.0939,-0.15798 -0.139009,-0.23823 z m 36.124923,3.90571 c -2.83553,10e-5 -5.50781,0.69741 -7.856364,1.92856 a 16.95887,16.952675 0 0 1 7.836214,-1.92184 16.95887,16.952675 0 0 1 0.0202,5.1e-4 16.95887,16.952675 0 0 1 16.93851,16.95194 16.95887,16.952675 0 0 1 -4.24832,11.22102 c 2.64927,-2.99049 4.25865,-6.92311 4.25865,-11.23239 0,-9.35991 -7.58835,-16.9478 -16.94832,-16.9478 z m 12.16154,0 c 5.26714,3.78613 8.69817,9.96605 8.69817,16.9478 0,3.91227 -1.07792,7.57233 -2.95175,10.70116 l -17.90744,31.01619 c 23.03992,0 41.71787,-18.67753 41.71787,-41.71735 0,-6.03703 -1.2929,-11.7685 -3.60288,-16.9478 z m -20.108338,1.9761 c -0.547326,0.29116 -1.076919,0.61125 -1.586466,0.9586 a 16.95887,16.952675 0 0 1 1.586466,-0.9586 z m -1.827795,1.12552 c -0.454352,0.32134 -0.89226,0.66442 -1.312065,1.02784 a 16.95887,16.952675 0 0 1 1.312065,-1.02784 z m -1.6738,1.3503 c -0.361807,0.33167 -0.708904,0.67913 -1.040763,1.04077 a 16.95887,16.952675 0 0 1 1.040763,-1.04077 z m -1.48363,1.54409 c -0.284589,0.33573 -0.556781,0.68232 -0.814937,1.03973 a 16.95887,16.952675 0 0 1 0.814937,-1.03973 z m -1.248503,1.66967 c -0.224224,0.34187 -0.436053,0.69264 -0.63562,1.0511 a 16.95887,16.952675 0 0 1 0.63562,-1.0511 z m -1.037146,1.81746 c -0.167449,0.34072 -0.323938,0.68763 -0.468705,1.04076 a 16.95887,16.952675 0 0 1 0.468705,-1.04076 z m -0.804085,1.92908 c -0.11119,0.32189 -0.212883,0.64841 -0.304891,0.97875 a 16.95887,16.952675 0 0 1 0.304891,-0.97875 z m -0.572575,2.07894 c -0.04979,0.24028 -0.09331,0.4827 -0.132808,0.72657 a 16.95887,16.952675 0 0 1 0.132808,-0.72657 z m 29.248862,14.72934 a 16.95887,16.952675 0 0 1 -1.38545,1.38493 c 0.48798,-0.43471 0.95055,-0.89713 1.38545,-1.38493 z m -1.4764,1.46554 a 16.95887,16.952675 0 0 1 -1.50636,1.17926 c 0.52437,-0.36506 1.0275,-0.75876 1.50636,-1.17926 z m -1.62212,1.25987 a 16.95887,16.952675 0 0 1 -1.62522,0.98237 c 0.5612,-0.29769 1.10369,-0.62568 1.62522,-0.98237 z m -18.549255,0.36484 c 0.164654,0.10342 0.331313,0.20394 0.499711,0.30179 a 16.95887,16.952675 0 0 1 -0.499711,-0.30179 z m 16.786055,0.6904 a 16.95887,16.952675 0 0 1 -1.70894,0.76842 c 0.58592,-0.22543 1.15648,-0.48186 1.70894,-0.76842 z m -15.155147,0.21135 c 0.285877,0.1383 0.575677,0.26929 0.870227,0.39171 a 16.95887,16.952675 0 0 1 -0.870227,-0.39171 z m 13.264827,0.62632 a 16.95887,16.952675 0 0 1 -1.72083,0.5364 c 0.58648,-0.14882 1.16054,-0.32822 1.72083,-0.5364 z m -11.52953,0.0982 c 0.38104,0.13425 0.76818,0.25504 1.16117,0.36225 a 16.95887,16.952675 0 0 1 -1.16117,-0.36225 z m 9.50794,0.51159 a 16.95887,16.952675 0 0 1 -1.61282,0.29559 c 0.54631,-0.0731 1.08427,-0.17176 1.61282,-0.29559 z m -7.54062,0.0481 c 0.39376,0.0868 0.79226,0.15974 1.19579,0.21859 a 16.95887,16.952675 0 0 1 -1.19579,-0.21859 z m 5.42189,0.30799 a 16.95887,16.952675 0 0 1 -1.43919,0.0868 c 0.48489,-0.009 0.96507,-0.0379 1.43919,-0.0868 z m -3.46387,0.006 c 0.4269,0.0426 0.85882,0.0682 1.29449,0.0785 a 16.95887,16.952675 0 0 1 -1.29449,-0.0785 z" /><path
       id="ellipse4524"
       style="display:none;fill:#fffbfb;fill-opacity:1;stroke:none;stroke-width:0.2617;stroke-opacity:0.988715"
       d="m 106.59401,134.36958 a 16.95887,16.952675 0 0 0 -16.959171,16.95245 16.95887,16.952675 0 0 0 16.959171,16.95297 16.95887,16.952675 0 0 0 16.95866,-16.95297 16.95887,16.952675 0 0 0 -16.95866,-16.95245 z m -5.10873,4.44417 c 0.55568,-0.008 1.06034,0.11548 1.7601,0.39016 1.07027,0.42012 1.61595,0.74066 2.0531,1.20561 0.60996,0.64877 1.04265,1.50008 1.27899,2.5094 0.23626,-1.00934 0.66903,-1.86062 1.279,-2.5094 0.43715,-0.46495 0.98335,-0.78498 2.05362,-1.2051 0.66475,-0.26094 1.15276,-0.3854 1.67638,-0.39015 v -5.2e-4 c 0.35827,-0.003 0.73307,0.0493 1.19166,0.15193 0.41918,0.0939 0.714,0.12097 1.36374,0.12454 l 0.82837,0.005 v 0.85473 c 0,0.80306 0.01,0.88113 0.15555,1.30844 0.1465,0.42836 0.15544,0.50653 0.1602,1.36323 0.004,0.7133 -0.0149,0.98205 -0.0884,1.24798 -0.14739,0.53323 -0.36151,1.03062 -0.62839,1.4795 a 2.8214419,2.8214419 0 0 0 -2.33112,-1.23248 2.8214419,2.8214419 0 0 0 -2.7497,2.2009 h -0.14883 a 2.8214419,2.8214419 0 0 0 -2.75229,-2.2009 2.8214419,2.8214419 0 0 0 -0.0108,5.1e-4 2.8214419,2.8214419 0 0 0 -2.73833,2.20039 h -0.14987 a 2.8214419,2.8214419 0 0 0 -2.75228,-2.20142 2.8214419,2.8214419 0 0 0 -2.340945,1.2485 c -0.270978,-0.45299 -0.488109,-0.95518 -0.63717,-1.49448 -0.07345,-0.26593 -0.09297,-0.53468 -0.0894,-1.24798 0.0047,-0.8567 0.01476,-0.93487 0.16123,-1.36323 0.145869,-0.42731 0.15503,-0.5059 0.15503,-1.30896 v -0.85421 l 0.82889,-0.005 c 0.649711,-0.004 0.944043,-0.0312 1.363225,-0.12505 0.4233,-0.0948 0.77506,-0.14666 1.10846,-0.15141 z m -0.41496,6.81509 a 2.0435297,2.0435297 0 0 1 2.0438,2.0438 2.0435297,2.0435297 0 0 1 -2.0438,2.04329 2.0435297,2.0435297 0 0 1 -2.04329,-2.04329 2.0435297,2.0435297 0 0 1 2.04329,-2.0438 z m 5.52627,0 a 2.0435297,2.0435297 0 0 1 2.04329,2.0438 2.0435297,2.0435297 0 0 1 -2.04329,2.04329 2.0435297,2.0435297 0 0 1 -2.0438,-2.04329 2.0435297,2.0435297 0 0 1 2.0438,-2.0438 z m 5.52628,0 a 2.0435297,2.0435297 0 0 1 2.04329,2.0438 2.0435297,2.0435297 0 0 1 -2.04329,2.04329 2.0435297,2.0435297 0 0 1 -2.0438,-2.04329 2.0435297,2.0435297 0 0 1 2.0438,-2.0438 z m -13.815692,4.76198 a 2.0435297,2.0435297 0 0 1 2.043802,2.0438 2.0435297,2.0435297 0 0 1 -2.043802,2.04329 2.0435297,2.0435297 0 0 1 -2.043286,-2.04329 2.0435297,2.0435297 0 0 1 2.043286,-2.0438 z m 5.526282,0 a 2.0435297,2.0435297 0 0 1 2.04328,2.0438 2.0435297,2.0435297 0 0 1 -2.04328,2.04329 2.0435297,2.0435297 0 0 1 -2.04381,-2.04329 2.0435297,2.0435297 0 0 1 2.04381,-2.0438 z m 5.52627,0 a 2.0435297,2.0435297 0 0 1 2.04381,2.0438 2.0435297,2.0435297 0 0 1 -2.04381,2.04329 2.0435297,2.0435297 0 0 1 -2.04328,-2.04329 2.0435297,2.0435297 0 0 1 2.04328,-2.0438 z m 5.52628,0 a 2.0435297,2.0435297 0 0 1 2.04329,2.0438 2.0435297,2.0435297 0 0 1 -2.04329,2.04329 2.0435297,2.0435297 0 0 1 -2.04329,-2.04329 2.0435297,2.0435297 0 0 1 2.04329,-2.0438 z m -13.81569,4.77284 a 2.0435297,2.0435297 0 0 1 2.0438,2.0438 2.0435297,2.0435297 0 0 1 -2.0438,2.04328 2.0435297,2.0435297 0 0 1 -2.04329,-2.04328 2.0435297,2.0435297 0 0 1 2.04329,-2.0438 z m 5.52627,0 a 2.0435297,2.0435297 0 0 1 0.29094,0.0212 2.0435297,2.0435297 0 0 1 0.14315,0.0258 2.0435297,2.0435297 0 0 1 5.1e-4,0 2.0435297,2.0435297 0 0 1 0.27957,0.0822 2.0435297,2.0435297 0 0 1 0.51057,0.27853 2.0435297,2.0435297 0 0 1 0.11317,0.0915 2.0435297,2.0435297 0 0 1 5.1e-4,0 2.0435297,2.0435297 0 0 1 0.10646,0.0992 2.0435297,2.0435297 0 0 1 0.59893,1.44539 2.0435297,2.0435297 0 0 1 -0.59842,1.44487 2.0435297,2.0435297 0 0 1 -5.1e-4,0 2.0435297,2.0435297 0 0 1 -0.66249,0.44287 2.0435297,2.0435297 0 0 1 -0.38344,0.11627 2.0435297,2.0435297 0 0 1 -0.39895,0.0393 2.0435297,2.0435297 0 0 1 -0.39842,-0.0393 2.0435297,2.0435297 0 0 1 -5.2e-4,0 2.0435297,2.0435297 0 0 1 -0.38292,-0.11627 2.0435297,2.0435297 0 0 1 -5.2e-4,0 2.0435297,2.0435297 0 0 1 -1.26142,-1.88774 2.0435297,2.0435297 0 0 1 0.34468,-1.13533 2.0435297,2.0435297 0 0 1 0.56379,-0.56379 2.0435297,2.0435297 0 0 1 0.35295,-0.18914 2.0435297,2.0435297 0 0 1 0.38344,-0.11627 2.0435297,2.0435297 0 0 1 0.39894,-0.0393 z m 5.52628,0 a 2.0435297,2.0435297 0 0 1 2.04329,2.0438 2.0435297,2.0435297 0 0 1 -2.04329,2.04328 2.0435297,2.0435297 0 0 1 -2.0438,-2.04328 2.0435297,2.0435297 0 0 1 2.0438,-2.0438 z m -8.28683,4.76766 a 2.0435297,2.0435297 0 0 1 2.04329,2.04381 2.0435297,2.0435297 0 0 1 -2.04329,2.04328 2.0435297,2.0435297 0 0 1 -2.0438,-2.04328 2.0435297,2.0435297 0 0 1 2.0438,-2.04381 z m 5.52576,0 a 2.0435297,2.0435297 0 0 1 2.0438,2.04381 2.0435297,2.0435297 0 0 1 -2.0438,2.04328 2.0435297,2.0435297 0 0 1 -2.04329,-2.04328 2.0435297,2.0435297 0 0 1 2.04329,-2.04381 z" /><path
       style="display:inline;fill:#ffffff;fill-opacity:1;stroke:none;stroke-width:0.2617;stroke-opacity:1"
       d="m 106.60403,134.87381 a 16.95887,16.952675 0 0 0 -16.959167,16.95245 16.95887,16.952675 0 0 0 16.959167,16.95297 16.95887,16.952675 0 0 0 16.95866,-16.95297 16.95887,16.952675 0 0 0 -16.95866,-16.95245 z m 0.0207,1.57458 a 15.365989,15.365988 0 0 1 15.36599,15.36598 15.365989,15.365988 0 0 1 -15.36599,15.36599 15.365989,15.365988 0 0 1 -15.365987,-15.36599 15.365989,15.365988 0 0 1 15.365987,-15.36598 z"
       id="ellipse4524-3" /><g
       id="g4437"
       transform="matrix(0.93460552,0,0,0.93460552,6.8831071,10.78106)"><path
         style="display:inline;fill:#ffffff;fill-opacity:1;stroke:none;stroke-width:0.2617;stroke-opacity:1"
         d="m 109.34379,160.13707 a 2.0435297,2.0435297 0 0 0 -2.04329,2.04381 2.0435297,2.0435297 0 0 0 2.04329,2.04328 2.0435297,2.0435297 0 0 0 2.0438,-2.04328 2.0435297,2.0435297 0 0 0 -2.0438,-2.04381 z"
         id="path4185" /><path
         style="display:inline;fill:#ffffff;fill-opacity:1;stroke:none;stroke-width:0.2617;stroke-opacity:1"
         d="m 103.81803,160.13707 a 2.0435297,2.0435297 0 0 0 -2.0438,2.04381 2.0435297,2.0435297 0 0 0 2.0438,2.04328 2.0435297,2.0435297 0 0 0 2.04329,-2.04328 2.0435297,2.0435297 0 0 0 -2.04329,-2.04381 z"
         id="path4183" /><path
         style="display:inline;fill:#ffffff;fill-opacity:1;stroke:none;stroke-width:0.2617;stroke-opacity:1"
         d="m 112.10486,155.36941 a 2.0435297,2.0435297 0 0 0 -2.0438,2.0438 2.0435297,2.0435297 0 0 0 2.0438,2.04328 2.0435297,2.0435297 0 0 0 2.04329,-2.04328 2.0435297,2.0435297 0 0 0 -2.04329,-2.0438 z"
         id="path4181" /><path
         style="display:inline;fill:#ffffff;fill-opacity:1;stroke:none;stroke-width:0.2617;stroke-opacity:1"
         d="m 106.57858,155.36941 a 2.0435297,2.0435297 0 0 0 -0.39894,0.0393 2.0435297,2.0435297 0 0 0 -0.38344,0.11627 2.0435297,2.0435297 0 0 0 -0.35295,0.18914 2.0435297,2.0435297 0 0 0 -0.56379,0.56379 2.0435297,2.0435297 0 0 0 -0.34468,1.13533 2.0435297,2.0435297 0 0 0 1.26142,1.88774 2.0435297,2.0435297 0 0 1 5.2e-4,0 2.0435297,2.0435297 0 0 0 0.38292,0.11627 2.0435297,2.0435297 0 0 1 5.2e-4,0 2.0435297,2.0435297 0 0 0 0.39842,0.0393 2.0435297,2.0435297 0 0 0 0.39895,-0.0393 2.0435297,2.0435297 0 0 0 0.38344,-0.11627 2.0435297,2.0435297 0 0 0 0.66249,-0.44287 2.0435297,2.0435297 0 0 1 5.1e-4,0 2.0435297,2.0435297 0 0 0 0.59842,-1.44487 2.0435297,2.0435297 0 0 0 -0.59893,-1.44539 2.0435297,2.0435297 0 0 0 -0.10646,-0.0992 2.0435297,2.0435297 0 0 1 -5.1e-4,0 2.0435297,2.0435297 0 0 0 -0.11317,-0.0915 2.0435297,2.0435297 0 0 0 -0.51057,-0.27853 2.0435297,2.0435297 0 0 0 -0.27957,-0.0822 2.0435297,2.0435297 0 0 1 -5.1e-4,0 2.0435297,2.0435297 0 0 0 -0.14315,-0.0258 2.0435297,2.0435297 0 0 0 -0.29094,-0.0212 z"
         id="path4179" /><path
         style="display:inline;fill:#ffffff;fill-opacity:1;stroke:none;stroke-width:0.2617;stroke-opacity:1"
         d="m 101.05232,155.36941 a 2.0435297,2.0435297 0 0 0 -2.04329,2.0438 2.0435297,2.0435297 0 0 0 2.04329,2.04328 2.0435297,2.0435297 0 0 0 2.04379,-2.04328 2.0435297,2.0435297 0 0 0 -2.04379,-2.0438 z"
         id="path4177" /><path
         style="display:inline;fill:#ffffff;fill-opacity:1;stroke:none;stroke-width:0.2617;stroke-opacity:1"
         d="m 114.868,150.59657 a 2.0435297,2.0435297 0 0 0 -2.04329,2.0438 2.0435297,2.0435297 0 0 0 2.04329,2.04329 2.0435297,2.0435297 0 0 0 2.04329,-2.04329 2.0435297,2.0435297 0 0 0 -2.04329,-2.0438 z"
         id="path4175" /><path
         style="display:inline;fill:#ffffff;fill-opacity:1;stroke:none;stroke-width:0.2617;stroke-opacity:1"
         d="m 109.34172,150.59657 a 2.0435297,2.0435297 0 0 0 -2.04328,2.0438 2.0435297,2.0435297 0 0 0 2.04328,2.04329 2.0435297,2.0435297 0 0 0 2.04381,-2.04329 2.0435297,2.0435297 0 0 0 -2.04381,-2.0438 z"
         id="path4173" /><path
         style="display:inline;fill:#ffffff;fill-opacity:1;stroke:none;stroke-width:0.2617;stroke-opacity:1"
         d="m 103.81545,150.59657 a 2.0435297,2.0435297 0 0 0 -2.04381,2.0438 2.0435297,2.0435297 0 0 0 2.04381,2.04329 2.0435297,2.0435297 0 0 0 2.04328,-2.04329 2.0435297,2.0435297 0 0 0 -2.04328,-2.0438 z"
         id="path4171" /><path
         style="display:inline;fill:#ffffff;fill-opacity:1;stroke:none;stroke-width:0.2617;stroke-opacity:1"
         d="m 98.28917,150.59657 a 2.0435297,2.0435297 0 0 0 -2.04328,2.0438 2.0435297,2.0435297 0 0 0 2.04328,2.04329 2.0435297,2.0435297 0 0 0 2.04381,-2.04329 2.0435297,2.0435297 0 0 0 -2.04381,-2.0438 z"
         id="path4169" /><path
         style="display:inline;fill:#ffffff;fill-opacity:1;stroke:none;stroke-width:0.2617;stroke-opacity:1"
         d="m 112.10486,145.83459 a 2.0435297,2.0435297 0 0 0 -2.0438,2.0438 2.0435297,2.0435297 0 0 0 2.0438,2.04329 2.0435297,2.0435297 0 0 0 2.04329,-2.04329 2.0435297,2.0435297 0 0 0 -2.04329,-2.0438 z"
         id="path4167" /><path
         style="display:inline;fill:#ffffff;fill-opacity:1;stroke:none;stroke-width:0.2617;stroke-opacity:1"
         d="m 106.57858,145.83459 a 2.0435297,2.0435297 0 0 0 -2.0438,2.0438 2.0435297,2.0435297 0 0 0 2.0438,2.04329 2.0435297,2.0435297 0 0 0 2.04329,-2.04329 2.0435297,2.0435297 0 0 0 -2.04329,-2.0438 z"
         id="path4165" /><path
         style="display:inline;fill:#ffffff;fill-opacity:1;stroke:none;stroke-width:0.2617;stroke-opacity:1"
         d="m 101.05232,145.83459 a 2.0435297,2.0435297 0 0 0 -2.04329,2.0438 2.0435297,2.0435297 0 0 0 2.04329,2.04329 2.0435297,2.0435297 0 0 0 2.04379,-2.04329 2.0435297,2.0435297 0 0 0 -2.04379,-2.0438 z"
         id="path4163" /><path
         style="display:inline;fill:#ffffff;fill-opacity:1;stroke:none;stroke-width:0.2617;stroke-opacity:1"
         d="m 101.46727,139.01949 v 5.2e-4 c -0.3334,0.005 -0.68515,0.0566 -1.10845,0.15141 -0.41919,0.0939 -0.71352,0.12118 -1.36323,0.12505 l -0.82889,0.005 v 0.85421 c 0,0.80307 -0.009,0.88166 -0.15503,1.30897 -0.14647,0.42836 -0.15652,0.50653 -0.16123,1.36323 -0.004,0.71329 0.016,0.98205 0.0894,1.24798 0.14906,0.5393 0.36619,1.04149 0.63717,1.49448 a 2.8214419,2.8214419 0 0 1 2.34095,-1.2485 2.8214419,2.8214419 0 0 1 2.75227,2.20142 h 0.14987 a 2.8214419,2.8214419 0 0 1 2.73833,-2.20039 2.8214419,2.8214419 0 0 1 0.0108,-5.1e-4 2.8214419,2.8214419 0 0 1 2.75229,2.2009 h 0.14883 a 2.8214419,2.8214419 0 0 1 2.7497,-2.2009 2.8214419,2.8214419 0 0 1 2.33112,1.23248 c 0.26688,-0.44888 0.481,-0.94627 0.62839,-1.4795 0.0734,-0.26593 0.0919,-0.53468 0.0884,-1.24798 -0.005,-0.8567 -0.0137,-0.93487 -0.1602,-1.36323 -0.1459,-0.42731 -0.15555,-0.50538 -0.15555,-1.30845 v -0.85473 l -0.82837,-0.005 c -0.64974,-0.004 -0.94456,-0.0306 -1.36374,-0.12454 -0.45859,-0.10268 -0.83339,-0.15532 -1.19166,-0.15193 v 5.2e-4 c -0.52362,0.005 -1.01163,0.12921 -1.67638,0.39015 -1.07027,0.42012 -1.61647,0.74015 -2.05362,1.20511 -0.60997,0.64878 -1.04274,1.50007 -1.279,2.5094 -0.23634,-1.00931 -0.66903,-1.86063 -1.27899,-2.5094 -0.43715,-0.46496 -0.98283,-0.7855 -2.0531,-1.20562 -0.69976,-0.27468 -1.20442,-0.39812 -1.7601,-0.39016 z"
         id="path4161" /></g></g><path
     id="rect957-47-9"
     style="display:inline;opacity:0.3;fill:url(#linearGradient940);fill-opacity:1;stroke:none;stroke-width:21.4603;stroke-dasharray:none;stroke-opacity:1"
     d="M 88.584445,72.917439 28.344705,177.25525 v 19.12649 L 99.626663,72.917439 Z m 32.576805,0 -86.384385,149.622391 c 4.18742,4.3582 10.05537,7.09207 16.51269,7.09207 h 40.95254 L 178.62699,80.008999 c -4.18752,-4.35792 -10.05601,-7.09156 -16.5132,-7.09156 z M 185.05917,102.24846 111.5143,229.6319 h 11.04274 l 62.50213,-108.25644 z" /></svg>
